<svg width="150" height="150" xmlns="http://www.w3.org/2000/svg"><path d="M107.3 135.6a42 42 0 009-83.3L115 47c3.3-2 13.2-9.3 13.2-20.8 0-6.8-3.7-11.1-9.5-11.1-7 0-19.7 8.6-21.1 9.6l.2.3a27.7 27.7 0 00-19-2.9c-2.7.6-5.4.6-8.1 0a27.7 27.7 0 00-19 3l.2-.4c-.2 0-3.5-2.4-7.7-4.7-6-3.3-10.4-4.9-13.5-4.9-5.8 0-9.5 4.3-9.5 11.1 0 11.5 9.9 18.7 13.2 20.8-.5 1.8-1 3.6-1.3 5.4a42.1 42.1 0 1029 78.2 26 26 0 015.7-2.2c4.1 2.9 9.7 2.9 13.8 0 2 .5 3.9 1.3 5.7 2.2 6.1 3.3 13 5 20 5zm11.4-115c1 0 3.8 0 3.8 5.5 0 7.7-6.4 13.2-9.6 15.4A37 37 0 00102.6 28c5-3.3 12.6-7.4 16-7.4zm-91.8 5.5c0-5.4 2.9-5.4 3.8-5.4 3.4 0 11 4.2 16 7.4-4.3 3.6-7.9 8.2-10.2 13.4-3.2-2.3-9.6-7.7-9.6-15.4zm47.8 98.7c-4.1 0-7.6-4-8.4-9.2 3-.1 5.8-1 8.4-2.4 2.6 1.5 5.4 2.3 8.4 2.4-.8 5.2-4.3 9.2-8.4 9.2zm21.8-25.4a12.8 12.8 0 01-19 9V97.5c2.9-1.7 6.9-4.8 6.9-8.2 0-3.4-3.5-6.2-9.7-6.2-6.2 0-9.8 2.7-9.8 6.2s4 6.5 7 8.2v10.7a12.8 12.8 0 01-19-8.9l-5.6 1c1.2 7 6.4 12.7 13.2 14.6a19 19 0 002.9 8.8c-1.4.5-2.7 1-4 1.8a36.4 36.4 0 11-23.3-68l2.1-.4.3-2.1C40.4 39 51.8 27 65 27c1.5 0 3 .2 4.5.5 3.4.8 7 .8 10.4 0 1.5-.3 3-.4 4.5-.4 13.2 0 24.6 12 26.5 27.9l.2 2.1 2.1.4a36.4 36.4 0 11-23.2 68c-1.3-.8-2.6-1.4-4-1.9 1.6-2.6 2.6-5.6 2.9-8.7 6.8-2 12-7.6 13.2-14.6l-5.6-1z" fill="#F05D5E" fill-rule="nonzero"/></svg>
