<svg width="150" height="150" xmlns="http://www.w3.org/2000/svg"><path d="M107.275 135.57c16.512.0686 31.5322-9.5443 38.3858-24.567 6.8536-15.0227 4.2687-32.6674-6.6059-45.093a42.29 42.29 0 00-22.8-13.6 43.7799 43.7799 0 00-1.26-5.37c3.33-2.11 13.17-9.3 13.17-20.81 0-6.86-3.64-11.13-9.48-11.13-6.9 0-19.66 8.63-21.09 9.62l.2.29a27.69 27.69 0 00-19-2.88 20.19 20.19 0 01-8.12 0 27.66 27.66 0 00-19 2.88l.2-.29c-.14-.1-3.48-2.38-7.64-4.7-6.01-3.31-10.41-4.92-13.53-4.92-5.84 0-9.47 4.27-9.47 11.13 0 11.51 9.83 18.7 13.16 20.8a44.38 44.38 0 00-1.26 5.38C14.0711 56.551.3832 73.2838.005 92.81c-.2281 14.9413 7.4772 28.885 20.2488 36.6425 12.7716 7.7576 28.6974 8.1676 41.8512 1.0775a26 26 0 015.67-2.25c4.163 2.8947 9.6871 2.8947 13.85 0a26.1 26.1 0 015.66 2.25 42.15 42.15 0 0019.99 5.04zm11.41-114.88c.94 0 3.78 0 3.78 5.44 0 7.69-6.39 13.13-9.55 15.34a37.06 37.06 0 00-10.3-13.36c5.05-3.26 12.63-7.42 16.07-7.42zm-91.76 5.44c0-5.44 2.85-5.44 3.78-5.44 3.44 0 11 4.16 16.07 7.42a37.17 37.17 0 00-10.3 13.36c-3.16-2.22-9.55-7.66-9.55-15.34zm47.77 98.62c-4.13 0-7.58-3.93-8.37-9.13a18.4 18.4 0 008.37-2.41 18.43 18.43 0 008.37 2.41c-.78 5.2-4.24 9.13-8.37 9.13zm21.77-25.32c-1.074 6.1168-6.3898 10.576-12.6 10.57a12.63 12.63 0 01-6.32-1.68V97.61c2.86-1.75 6.86-4.79 6.86-8.21 0-3.42-3.54-6.19-9.74-6.19s-9.74 2.65-9.74 6.19c0 3.54 4 6.46 6.9 8.21v10.67a12.79 12.79 0 01-18.93-8.85l-5.6 1c1.2391 7.0011 6.389 12.6683 13.24 14.57a19.09 19.09 0 002.85 8.76 32.3299 32.3299 0 00-4 1.8c-12.7143 6.803-28.2455 5.4615-39.605-3.4208C8.4205 113.257 3.3732 98.5077 6.9093 84.5282c3.536-13.9797 14.989-24.5553 29.2056-26.9682l2.1-.35.26-2.12c1.89-15.91 13.29-27.9 26.52-27.9 1.5014 0 2.9989.1504 4.47.45a25.75 25.75 0 0010.42 0 22.3978 22.3978 0 014.47-.45c13.23 0 24.64 12 26.52 27.9l.26 2.12 2.1.35c17.3167 2.9471 30.0997 17.778 30.46 35.34.1997 12.9213-6.4627 24.9808-17.5075 31.6899-11.0447 6.7091-24.8177 7.063-36.1925.9301a32.4599 32.4599 0 00-4-1.8 19.1 19.1 0 002.86-8.76c6.8267-1.9042 11.9579-7.5525 13.2-14.53l-5.59-1z" fill="#FFF" fill-rule="nonzero"/></svg>
