<svg xmlns="http://www.w3.org/2000/svg" viewBox="0 0 665 90"><defs/><g fill="none" fill-rule="evenodd"><path fill="#F74041" fill-rule="nonzero" d="M156.2 45c0 6-2.4 8.5-6 8.5-3.2 0-5.3-1.8-5.3-6.5V29.5H134v19.8c0 9.1 5.4 13.3 12.2 13.3 4.7 0 7.7-2.4 10-6h.2v5h10.2V29.5h-10.4V45zm37.9-16.5c-5.1 0-8.4 2.2-10.5 5.4v-4.4H173v46h10.5V57.2h.1c2 3.3 5.4 5.5 10.5 5.5 8.4 0 15.2-5.9 15.2-17.1 0-11.3-6.8-17.1-15.2-17.1zM191.2 53a7.5 7.5 0 110-15 7.5 7.5 0 010 15zm43.9-24.5c-5.1 0-8.5 2.2-10.5 5.4h-.1v-4.4H214v46h10.5V57.2h.1c2 3.3 5.4 5.5 10.5 5.5 8.3 0 15.2-5.9 15.2-17.1 0-11.3-6.9-17.1-15.2-17.1zm-3 24.6a7.5 7.5 0 117.4-7.5 7.1 7.1 0 01-7.3 7.5zM255 13h10.5v48.6H255zm33.1 15.5c-10.3 0-18 6.8-18 17 0 10.4 7.7 17.2 18 17.2 10.4 0 18.1-6.9 18.1-17.1 0-10.3-7.6-17.1-18-17.1zm0 24.6a7.5 7.5 0 117.5-7.5 7.2 7.2 0 01-7.5 7.5zM335 33.9h-.2c-2-3.3-5.3-5.4-10.5-5.4-8.3 0-15.2 5.8-15.2 17 0 11.3 6.9 17.1 15.2 17.1 5.2 0 8.5-2.1 10.5-5.4h.1v4.4h10.5V29.5H335v4.4zm-7.8 19.2a7.5 7.5 0 117.5-7.5 7.1 7.1 0 01-7.5 7.5zM375.6 13v20.9h-.1c-2-3.3-5.3-5.4-10.5-5.4-8.3 0-15.2 5.8-15.2 17 0 11.3 6.9 17.1 15.2 17.1 5.2 0 8.5-2.1 10.5-5.4h.1v4.4h10.5V13h-10.5zM368 53a7.5 7.5 0 117.4-7.4A7.1 7.1 0 01368 53zM89 0c4.3 0 7 3.2 7 8.3 0 8.6-7.3 14-9.8 15.5l1 4a31.7 31.7 0 0122 43.9 31.5 31.5 0 01-43.8 14.5c-1.3-.7-2.8-1.3-4.2-1.6a9.1 9.1 0 01-10.4 0c-1.5.3-3 1-4.3 1.6A31.7 31.7 0 010 58.1c.3-14.6 10.5-27 24.8-30.3a33 33 0 011-4c-2.5-1.5-9.9-6.9-9.9-15.5C16 3.2 18.6 0 23 0c2.3 0 5.6 1.2 10.2 3.7 3 1.7 5.6 3.4 5.7 3.5l-.2.2A21 21 0 0153 5.2c2 .5 4 .5 6 0 4.9-1 10-.2 14.3 2.2l-.2-.2C74.2 6.4 83.8 0 89 0zM63.1 9.1l-3.3.3c-2.6.6-5.3.6-7.8 0-1.1-.2-2.3-.3-3.4-.3-10 0-18.4 9-19.9 20.8l-.2 1.6-1.5.3A27.2 27.2 0 0014.8 80a27.4 27.4 0 0029.7 2.5c1-.5 2-1 3-1.3-1.2-2-2-4.2-2.1-6.6-5.2-1.4-9-5.6-10-10.8l4.2-.8a9.6 9.6 0 0014.2 6.6v-8c-2.1-1.2-5.1-3.4-5.1-6 0-2.7 2.6-4.7 7.3-4.7 4.6 0 7.3 2 7.3 4.6 0 2.6-3 4.9-5.2 6.2v8A9.6 9.6 0 0072.3 63l4.2.7c-1 5.2-4.8 9.4-10 10.8a13 13 0 01-2 6.6c1 .3 2 .8 3 1.3A27.4 27.4 0 00107.7 58a27.4 27.4 0 00-22.8-26.3l-1.6-.3L83 30C81.7 18.1 73 9.1 63.2 9.1zM56 73.3c-2 1.1-4 1.7-6.3 1.8.6 3.9 3.2 6.8 6.3 6.8 3 0 5.7-3 6.3-6.8-2.3 0-4.4-.7-6.3-1.8zM65.5 29a3.5 3.5 0 110 7 3.5 3.5 0 010-7zm-19 0a3.5 3.5 0 110 7 3.5 3.5 0 010-7zM89 4.2c-2.6 0-8.3 3.2-12.1 5.6 3.3 2.7 6 6 7.7 10C87 18 91.8 14 91.8 8.3c0-3.9-2-4-2.8-4zm-66 0c-.7 0-2.8 0-2.8 4.1 0 5.7 4.8 9.8 7.1 11.5 1.8-4 4.4-7.3 7.8-10a34.3 34.3 0 00-12-5.6z"/><g transform="translate(429 11)"><rect width="235" height="53" x=".5" y=".5" fill="#FFF" fill-rule="nonzero" stroke="#F74041" rx="10"/><text fill="#F74041" font-family="Helvetica-Bold, Helvetica" font-size="9" font-weight="bold" transform="translate(53 11)"><tspan x="0" y="9">Product Hunt</tspan></text><text fill="#F74041" font-family="Helvetica-Bold, Helvetica" font-size="16" font-weight="bold" transform="translate(52 25)"><tspan x="0" y="15">#1 Product of the Day</tspan></text><g fill-rule="nonzero" transform="translate(17 13)"><path fill="#DE7818" d="M4.3 16.4l-4 8.5c-.1.3 0 .4.5.3l3.2-.7a.2.2 0 01.3.2l1.5 3c.1.3.3.4.4.1l4.3-8.9-6.2-2.5zm12.4 0l4 8.5c.1.3 0 .4-.5.3l-3.2-.7a.2.2 0 00-.3.2l-1.5 3c-.1.3-.3.4-.4.1L10.5 19l6.2-2.5z"/><path fill="#F74041" d="M9.3 21.4c-2.3-.3-4.4-1.2-6-2.8l.2-.4a10.8 10.8 0 006 2.7l-.2.5z"/><circle cx="10.5" cy="10.5" r="10.5" fill="#F0CD0A"/><circle cx="10.5" cy="10.5" r="9" fill="#D2B309"/><circle cx="10.7" cy="10.7" r="8.7" fill="#E3C101"/><path fill="#FFF2B5" d="M10.5 14.8h2.1V6.3h-2.1L8.3 7.8v1.8l2-1.4h.2z"/><path fill="#FFF" fill-opacity=".2" d="M13 3a7.6 7.6 0 01.3 14.8 9 9 0 003.4-7.2A9 9 0 0013 3z"/><path fill="#F74041" d="M11.7 21.4c2.3-.3 4.4-1.2 6-2.7l-.1-.4a10.8 10.8 0 01-6.1 2.6l.2.5z"/></g></g></g></svg>
