<svg width="256" height="256" xmlns="http://www.w3.org/2000/svg"><path d="M205 25h1a15 15 0 0112 11l1 1v3l1 2-1 8a65 65 0 01-5 19 131 131 0 01-12 20l1 1a147 147 0 0112 5l2 1a61 61 0 013 1 87 87 0 0119 16 107 107 0 015 7l1 2a69 69 0 0110 25v3l1 2v14l-1 2a20 20 0 010 2v3l-1 1a80 80 0 01-9 23l-4 7a75 75 0 01-31 23h-1a95 95 0 01-16 4h-3a130 130 0 01-17 0h-3l-4-1a63 63 0 01-3 0l-2-1h-2a120 120 0 01-20-6c-4-2-5-3-8-3a27 27 0 00-11 0l-8 3a57 57 0 01-16 6 88 88 0 01-9 1l-1 1a17 17 0 01-3 0 21 21 0 01-3 0h-2a116 116 0 01-16 0h-1-1l-5-2a76 76 0 01-29-14l-1-1a76 76 0 01-13-15l-1-2a50 50 0 01-5-9l-4-11v-1a66 66 0 01-2-24l1-2v-1-3a83 83 0 019-23 93 93 0 0113-17l4-3 1-1 5-3 2-1v-1h1a77 77 0 019-4l1-1a81 81 0 019-3l-1-1a149 149 0 01-13-23 61 61 0 01-4-24v-1c0-6 4-12 9-14l6-1c4 0 8 1 14 4a126 126 0 0113 6l2 2h2l1 1a1227 1227 0 0119 13 61 61 0 016-1h4a152 152 0 0131 0h2a57 57 0 015 0l1 1h1l8-5 11-8 3-2a120 120 0 0121-10h1a23 23 0 018-1z" fill="#FF4E4F" fill-rule="nonzero"/></svg>
