<svg width="385" height="91" xmlns="http://www.w3.org/2000/svg"><path d="M87.6 1c4.2 0 6.9 3.2 6.9 8.2 0 8.5-7.2 13.8-9.6 15.4.4 1.3.7 2.6.9 4a31.3 31.3 0 0121.4 43.3 30.6 30.6 0 01-42.5 14.4c-1.3-.7-2.7-1.3-4.2-1.7-3 2.2-7 2.2-10 0-1.5.4-2.9 1-4.2 1.7-9.6 5.2-21.2 5-30.5-.8a31.2 31.2 0 019.4-57 33 33 0 01.9-4c-2.4-1.5-9.6-6.8-9.6-15.3 0-5 2.6-8.2 6.9-8.2a23 23 0 019.9 3.6c3 1.7 5.3 3.3 5.5 3.5l-.1.2a20 20 0 0113.8-2.1c2 .4 4 .4 6 0A20 20 0 0171.9 8l.4.2-.1-.2c1-.7 10.3-7.1 15.4-7.1zm-25 9c-1.2 0-2.3.1-3.3.3-2.5.6-5.1.6-7.6 0l-3.3-.3c-9.5 0-17.8 8.7-19.3 20.2v.4l-.2 1.6-1.6.2a27 27 0 00-12 47.7 26.3 26.3 0 0029 2.5c1-.5 2-1 3-1.3-1.3-2-2-4.2-2.1-6.5a13.6 13.6 0 01-9.6-10.4l-.1-.3 4-.8c.6 3 2.6 5.6 5.3 7a9.2 9.2 0 008.3-.3l.3-.1v-8c-2.1-1.2-5-3.4-5-6s2.5-4.6 7-4.6c4.6 0 7.2 2 7.2 4.6 0 2.5-2.8 4.6-4.8 6h-.2v8a9.3 9.3 0 0013.7-6.3v-.3l4.1.8c-.9 5.1-4.6 9.3-9.6 10.7-.2 2.3-.9 4.5-2 6.5 1 .3 1.9.8 2.8 1.3a26.3 26.3 0 0026.4-.7 27 27 0 00-9-49.4h-.4l-1.5-.3-.2-1.6C80.5 18.9 72.2 10 62.5 10zm-7.1 63.5c-1.9 1-4 1.7-6.1 1.8.5 3.8 3 6.7 6 6.7s5.6-2.9 6.2-6.7c-2.2-.1-4.3-.7-6.1-1.8zM234.9 30c8.3 0 15.1 5.7 15.1 16.7s-6.8 16.7-15 16.7c-5 0-8.3-2-10.3-5l-.2-.3h-.1V76H214V31h10.4v4.3h.1c2-3.2 5.3-5.3 10.4-5.3zm-41 0c8.3 0 15.1 5.7 15.1 16.7s-6.8 16.7-15 16.7c-5 0-8.3-2-10.3-5l-.1-.3h-.2V76H173V31h10.4v4.3h.2c2-3.2 5.2-5.3 10.3-5.3zm-48.2 1v17.5c0 4.6 2 6.4 5.1 6.4 3.5 0 5.8-2.5 6-8.1V31H167v32h-10v-5h-.2c-2.3 3.6-5.3 6-9.9 6-6.6 0-11.7-4-11.9-12.9V31h10.7zM384 15v48h-10.4v-4.3h-.1c-2 3.2-5.3 5.3-10.4 5.3-8.3 0-15.1-5.8-15.1-16.9 0-11 6.8-16.8 15-16.8 5.1 0 8.3 2 10.3 5l.2.3h.1V15H384zm-61 15c5.1 0 8.3 2 10.3 5l.2.2h.1V31H344v31h-10.4v-4.2h-.1c-2 3.1-5.3 5.2-10.4 5.2-8.3 0-15.1-5.6-15.1-16.5S314.8 30 323 30zm-35.5 0c10 0 17.5 6.6 17.5 16.5 0 10-7.5 16.5-17.5 16.5S270 56.4 270 46.5c0-10 7.4-16.5 17.5-16.5zM265 15v47h-10V15h10zm95.6 27a7.4 7.4 0 005.4 12.5 7 7 0 007.3-7.4 7.5 7.5 0 00-12.7-5.2zm-134-.4a7.3 7.3 0 00-1.5 8 7.4 7.4 0 006.7 4.5h.2c2 0 4-.7 5.3-2.1a7 7 0 002-5.3c0-3-1.8-5.6-4.6-6.8-2.8-1.1-6-.5-8.1 1.7zM191 39.4a7.4 7.4 0 00-7.4 7.3c0 4 3.3 7.4 7.4 7.4 4.1 0 7.5-3.3 7.5-7.4 0-4-3.4-7.3-7.5-7.3zm129.6 2a7.1 7.1 0 00-1.6 8c1.2 2.6 4 4.4 7 4.3 2 .1 3.9-.6 5.3-2a6.8 6.8 0 002-5.2c0-3-1.8-5.6-4.6-6.7-2.8-1.1-6-.5-8 1.6zm-38.3 0a7.2 7.2 0 004.9 12.3h.3a7 7 0 007.3-7.2 7.3 7.3 0 00-12.4-5.1zM65.5 30a3.5 3.5 0 110 7 3.5 3.5 0 010-7zm-20 0a3.5 3.5 0 110 7 3.5 3.5 0 010-7zM23.4 5.2h-.1c-.8 0-2.7.2-2.7 4 0 5.7 4.7 9.7 7 11.3 1.7-3.8 4.3-7.2 7.5-9.8a33.1 33.1 0 00-11.7-5.5zm64.3 0h-.1c-2.5 0-8 3-11.8 5.5 3.3 2.6 5.8 6 7.6 9.8 2.3-1.6 7-5.6 7-11.3 0-3.8-2-4-2.7-4z" fill="#fff" fill-rule="nonzero"/></svg>
