<?xml version="1.0" standalone="no"?>
<!DOCTYPE svg PUBLIC "-//W3C//DTD SVG 20010904//EN"
 "http://www.w3.org/TR/2001/REC-SVG-20010904/DTD/svg10.dtd">
<svg version="1.0" xmlns="http://www.w3.org/2000/svg"
 width="1672.000000pt" height="1672.000000pt" viewBox="0 0 1672.000000 1672.000000"
 preserveAspectRatio="xMidYMid meet">
<metadata>
Created by potrace 1.11, written by Peter Selinger 2001-2013
</metadata>
<g transform="translate(0.000000,1672.000000) scale(0.100000,-0.100000)"
fill="#000000" stroke="none">
<path d="M3338 15095 c-2 -2 -30 -6 -63 -10 -151 -16 -299 -71 -430 -159 -51
-34 -175 -150 -210 -197 -73 -96 -129 -204 -174 -332 -17 -48 -30 -91 -30 -95
0 -4 -5 -27 -10 -52 -14 -58 -20 -93 -27 -155 -3 -27 -8 -61 -10 -75 -9 -56
-4 -361 10 -525 28 -337 148 -812 287 -1140 7 -16 13 -32 14 -35 2 -7 23 -58
41 -100 53 -124 249 -502 335 -645 131 -220 388 -593 456 -663 23 -24 13 -33
-53 -47 -16 -4 -172 -52 -239 -74 -185 -61 -404 -151 -566 -232 -57 -28 -124
-62 -149 -74 -25 -13 -70 -38 -100 -55 -30 -18 -75 -44 -100 -58 -136 -76
-460 -304 -610 -430 -226 -190 -433 -397 -621 -622 -65 -78 -242 -313 -275
-365 -10 -16 -21 -32 -24 -35 -3 -3 -10 -14 -17 -25 -6 -11 -41 -67 -76 -125
-115 -186 -219 -387 -302 -580 -31 -74 -61 -144 -66 -155 -76 -175 -213 -648
-244 -845 -3 -19 -8 -42 -10 -50 -2 -8 -6 -33 -10 -55 -3 -22 -8 -53 -10 -70
-3 -16 -7 -46 -9 -65 -5 -37 -14 -115 -21 -165 -24 -180 -24 -797 0 -925 1 -8
6 -46 10 -83 3 -37 8 -78 10 -89 3 -12 7 -44 10 -72 3 -28 8 -58 10 -66 2 -8
7 -35 10 -60 3 -25 10 -61 15 -80 5 -19 12 -51 15 -70 29 -170 151 -571 240
-790 82 -202 236 -507 346 -685 79 -128 250 -373 320 -460 379 -465 769 -811
1255 -1112 65 -40 225 -130 324 -180 101 -52 357 -166 420 -188 3 -1 17 -7 31
-13 73 -30 373 -126 459 -147 8 -2 62 -15 120 -28 168 -41 342 -72 510 -93 52
-6 84 -9 195 -20 161 -17 763 -9 965 11 19 2 67 6 105 9 39 4 88 8 110 11 22
2 83 9 135 15 99 11 106 12 235 30 103 15 143 21 168 26 12 2 39 6 62 9 22 3
76 13 120 21 44 8 96 17 115 20 113 17 536 116 641 150 25 8 54 16 65 19 31 6
274 90 354 123 41 16 161 72 265 124 255 125 334 156 495 192 211 47 482 52
680 11 14 -3 39 -8 55 -11 118 -21 267 -79 530 -209 249 -123 356 -168 565
-238 145 -48 287 -91 337 -102 10 -2 63 -15 118 -29 122 -30 278 -65 325 -72
19 -2 55 -9 80 -14 60 -13 154 -28 215 -35 28 -4 57 -8 65 -10 8 -2 42 -7 75
-11 33 -3 69 -8 80 -10 11 -2 56 -7 100 -10 44 -3 82 -8 85 -9 3 -2 62 -7 130
-12 234 -15 786 -8 912 12 12 2 48 6 78 9 30 4 69 9 85 11 17 3 44 7 60 10 17
2 46 7 66 10 32 5 298 59 340 69 360 87 858 283 1154 456 249 144 417 256 600
399 61 47 112 88 115 91 3 3 37 32 75 65 193 164 428 408 590 610 22 28 42 52
45 55 23 23 130 174 217 305 36 55 73 111 82 125 34 50 151 257 151 266 0 6 5
15 10 20 10 10 103 198 147 299 90 204 210 558 253 750 7 28 13 57 15 65 39
163 74 367 90 525 4 39 9 78 11 87 8 49 18 276 18 443 0 207 -8 380 -24 520
-6 50 -13 104 -15 120 -2 17 -6 44 -9 60 -5 29 -25 149 -31 190 -18 113 -102
437 -154 590 -97 289 -235 602 -362 822 -27 47 -49 87 -49 89 0 7 -159 253
-210 324 -66 92 -133 183 -140 190 -4 3 -33 39 -65 80 -114 144 -309 351 -460
489 -126 115 -139 126 -225 195 -47 38 -94 76 -105 85 -43 35 -166 121 -280
195 -66 44 -132 87 -147 97 -15 11 -30 19 -34 19 -3 0 -18 8 -32 18 -50 35
-411 222 -427 222 -3 0 -35 14 -72 31 -38 17 -90 40 -118 50 -27 11 -59 24
-70 29 -60 27 -330 115 -478 154 -26 7 -50 16 -53 19 -3 3 28 54 68 114 80
117 268 412 268 419 0 3 16 30 35 60 19 30 35 59 35 64 0 6 5 10 10 10 6 0 10
4 10 9 0 5 26 51 59 102 152 245 302 540 411 815 161 403 255 791 285 1174 6
72 6 326 1 365 -3 17 -7 53 -10 80 -51 434 -290 785 -622 912 -154 59 -228 74
-390 78 -238 6 -525 -67 -909 -233 -140 -60 -468 -222 -580 -287 -33 -19 -69
-38 -80 -43 -11 -5 -83 -47 -160 -92 -77 -45 -153 -90 -170 -100 -16 -9 -57
-34 -90 -55 -33 -20 -73 -46 -90 -56 -40 -25 -553 -367 -740 -494 -470 -318
-482 -326 -506 -321 -68 12 -135 22 -217 32 -26 3 -58 7 -72 9 -14 2 -47 6
-75 9 -27 3 -75 8 -105 12 -30 4 -73 8 -95 9 -22 2 -67 5 -100 9 -242 24 -557
36 -970 35 -361 0 -450 -2 -810 -23 -78 -5 -210 -16 -255 -21 -19 -2 -60 -7
-90 -10 -103 -10 -155 -16 -180 -20 -14 -2 -50 -7 -80 -10 -30 -3 -66 -8 -80
-10 -14 -3 -41 -7 -60 -10 -19 -3 -47 -8 -62 -11 -29 -6 -31 -5 -543 341 -477
322 -587 395 -740 489 -88 55 -176 109 -195 121 -44 28 -188 113 -260 153 -30
17 -84 47 -120 67 -102 57 -497 252 -580 286 -41 17 -93 39 -115 49 -23 10
-54 22 -70 26 -17 4 -34 10 -40 14 -9 7 -107 41 -130 46 -5 1 -49 14 -98 28
-131 38 -259 58 -389 61 -64 1 -118 1 -120 0z"/>
</g>
</svg>
