<svg xmlns="http://www.w3.org/2000/svg" viewBox="0 0 252.12 209"><defs><style>.cls-1{fill:#fff;}</style></defs><title>Asset 3</title><g id="Layer_2" data-name="Layer 2"><g id="Layer_1-2" data-name="Layer 1"><path class="cls-1" d="M22.15,178.52c0,5.9-2.36,8.47-6,8.47-3.13,0-5.28-1.81-5.28-6.46V163H0v19.78c0,9.17,5.35,13.34,12.15,13.34,4.72,0,7.78-2.37,10.07-6h.14v5H32.63V163H22.15Z"/><path class="cls-1" d="M60.13,162c-5.14,0-8.47,2.16-10.48,5.42h-.14V163H39v46H49.51V190.74h.14c2,3.26,5.34,5.42,10.48,5.42,8.33,0,15.2-5.84,15.2-17.08S68.46,162,60.13,162Zm-2.92,24.58a7.5,7.5,0,0,1,0-15,7.5,7.5,0,0,1,0,15Z"/><path class="cls-1" d="M101.1,162c-5.14,0-8.47,2.16-10.49,5.42h-.14V163H80v46H90.47V190.74h.14c2,3.26,5.35,5.42,10.49,5.42,8.33,0,15.2-5.84,15.2-17.08S109.43,162,101.1,162Zm-2.92,24.58a7.5,7.5,0,1,1,7.36-7.49A7.12,7.12,0,0,1,98.18,186.57Z"/><rect class="cls-1" x="121.02" y="146.51" width="10.48" height="48.6"/><path class="cls-1" d="M154.14,162c-10.34,0-18,6.81-18,17.09s7.64,17.08,18,17.08,18.06-6.81,18.06-17.08S164.56,162,154.14,162Zm0,24.58a7.5,7.5,0,1,1,7.5-7.49A7.21,7.21,0,0,1,154.14,186.57Z"/><path class="cls-1" d="M200.94,167.41h-.14c-2-3.26-5.27-5.42-10.48-5.42-8.33,0-15.21,5.84-15.21,17.09s6.88,17.08,15.21,17.08c5.21,0,8.47-2.16,10.48-5.42h.14v4.37h10.49V163H200.94Zm-7.7,19.16a7.5,7.5,0,1,1,7.42-7.49A7.1,7.1,0,0,1,193.24,186.57Z"/><path class="cls-1" d="M241.63,146.51v20.9h-.14c-2-3.26-5.27-5.42-10.48-5.42-8.33,0-15.21,5.84-15.21,17.09s6.88,17.08,15.21,17.08c5.21,0,8.47-2.16,10.48-5.42h.14v4.37h10.49v-48.6Zm-7.71,40.06a7.5,7.5,0,1,1,7.43-7.49A7.11,7.11,0,0,1,233.92,186.57Z"/><path class="cls-1" d="M113.2,38.61A4.84,4.84,0,1,0,118,43.45,4.84,4.84,0,0,0,113.2,38.61Z"/><path class="cls-1" d="M139.38,38.61a4.84,4.84,0,1,0,4.84,4.84A4.84,4.84,0,0,0,139.38,38.61Z"/><path class="cls-1" d="M158.87,120.57a42,42,0,0,0,31.78-69.66,42.29,42.29,0,0,0-22.8-13.6,43.78,43.78,0,0,0-1.26-5.37c3.33-2.11,13.17-9.3,13.17-20.81,0-6.86-3.64-11.13-9.48-11.13-6.9,0-19.66,8.63-21.09,9.62l.2.29a27.69,27.69,0,0,0-19-2.88,20.19,20.19,0,0,1-8.12,0,27.66,27.66,0,0,0-19,2.88l.2-.29c-.14-.1-3.48-2.38-7.64-4.7C89.82,1.61,85.42,0,82.3,0c-5.84,0-9.47,4.27-9.47,11.13,0,11.51,9.83,18.7,13.16,20.8a44.38,44.38,0,0,0-1.26,5.38A42.33,42.33,0,0,0,51.6,77.81a42.12,42.12,0,0,0,62.1,37.72,26,26,0,0,1,5.67-2.25,12.13,12.13,0,0,0,13.85,0,26.1,26.1,0,0,1,5.66,2.25A42.15,42.15,0,0,0,158.87,120.57ZM170.28,5.69c.94,0,3.78,0,3.78,5.44,0,7.69-6.39,13.13-9.55,15.34a37.06,37.06,0,0,0-10.3-13.36C159.26,9.85,166.84,5.69,170.28,5.69ZM78.52,11.13c0-5.44,2.85-5.44,3.78-5.44,3.44,0,11,4.16,16.07,7.42a37.17,37.17,0,0,0-10.3,13.36C84.91,24.25,78.52,18.81,78.52,11.13Zm47.77,98.62c-4.13,0-7.58-3.93-8.37-9.13a18.4,18.4,0,0,0,8.37-2.41,18.43,18.43,0,0,0,8.37,2.41C133.88,105.82,130.42,109.75,126.29,109.75Zm21.77-25.32A12.78,12.78,0,0,1,135.46,95a12.63,12.63,0,0,1-6.32-1.68V82.61C132,80.86,136,77.82,136,74.4s-3.54-6.19-9.74-6.19-9.74,2.65-9.74,6.19,4,6.46,6.9,8.21V93.28a12.79,12.79,0,0,1-18.93-8.85l-5.6,1A18.46,18.46,0,0,0,112.13,100a19.09,19.09,0,0,0,2.85,8.76,32.33,32.33,0,0,0-4,1.8,36.41,36.41,0,1,1-23.27-68l2.1-.35.26-2.12c1.89-15.91,13.29-27.9,26.52-27.9a22.37,22.37,0,0,1,4.47.45,25.75,25.75,0,0,0,10.42,0,22.37,22.37,0,0,1,4.47-.45c13.23,0,24.64,12,26.52,27.9l.26,2.12,2.1.35A36.61,36.61,0,0,1,195.29,77.9a36.42,36.42,0,0,1-53.7,32.62,32.46,32.46,0,0,0-4-1.8,19.1,19.1,0,0,0,2.86-8.76,18.44,18.44,0,0,0,13.2-14.53Z"/></g></g></svg>